<svg width="117" height="118" viewBox="0 0 117 118" fill="none" xmlns="http://www.w3.org/2000/svg">
<circle cx="58.5" cy="59.0057" r="58.5" fill="#FFBD2D"/>
<g clip-path="url(#clip0)">
<path d="M40.9466 32.3718L29.9785 41.6225C29.4392 42.0748 29.6037 42.9405 30.2656 43.1655L51.9737 50.6481C52.2783 50.7564 52.6167 50.687 52.862 50.4698L66.4798 38.5172L41.7592 32.1828C41.469 32.1132 41.173 32.1781 40.9466 32.3718ZM60.9615 46.4554L53.6616 53.2246C53.4102 53.4551 53.0621 53.5281 52.7442 53.4136L34.4301 46.837C33.9798 46.6775 33.4856 46.8926 33.2929 47.3275L27.2752 61.3056C27.107 61.6874 27.2292 62.1387 27.5644 62.3902L46.2745 76.3147C46.7304 76.6541 47.2241 76.9465 47.7356 77.1826L61.6785 46.9798C62.206 45.8371 61.8779 45.605 60.9615 46.4554ZM87.9525 68.3857L87.8817 54.0309C87.8791 53.7396 87.7396 53.4656 87.4954 53.2965L66.6393 38.5908L66.3756 56.7082C66.3694 57.0358 66.5391 57.3317 66.816 57.4999L86.592 69.1681C87.1925 69.5259 87.9581 69.0895 87.9525 68.3857ZM81.103 68.3831L64.2181 58.7104C63.9248 58.5428 63.7479 58.2274 63.7669 57.8896L64.1837 47.9429C64.2396 46.6872 63.8471 46.5946 63.3226 47.7307L49.3797 77.9336C49.8913 78.1697 50.4341 78.3558 50.9881 78.4826L73.7222 83.6904C74.131 83.7825 74.5506 83.5893 74.7352 83.207L81.4704 69.5601C81.6733 69.138 81.5164 68.6223 81.103 68.3831Z" fill="black"/>
</g>
<defs>
<clipPath id="clip0">
<rect width="73.176" height="73.176" fill="white" transform="translate(39.6707 9.50574) rotate(24.78)"/>
</clipPath>
</defs>
</svg>
